<?xml version="1.0" encoding="utf-8"?>
<!-- Svg Vector Icons : http://www.onlinewebfonts.com/icon -->
<!DOCTYPE svg PUBLIC "-//W3C//DTD SVG 1.1//EN" "http://www.w3.org/Graphics/SVG/1.1/DTD/svg11.dtd">
<svg version="1.1" xmlns="http://www.w3.org/2000/svg" xmlns:xlink="http://www.w3.org/1999/xlink" x="0px" y="0px" viewBox="0 0 256 256" enable-background="new 0 0 256 256" xml:space="preserve">
<metadata> Svg Vector Icons : http://www.onlinewebfonts.com/icon </metadata>
<g><g><path fill="#000000" d="M128,246.1c-15.9,0-31.4-3.1-45.9-9.3c-14.1-5.9-26.7-14.5-37.5-25.3c-10.8-10.8-19.3-23.5-25.3-37.5c-6.1-14.6-9.3-30.1-9.3-46c0-15.9,3.1-31.4,9.3-46c5.9-14.1,14.4-26.7,25.3-37.5C55.4,33.6,68,25.1,82.1,19.2c14.6-6.2,30-9.3,45.9-9.3s31.4,3.1,45.9,9.3c14.1,5.9,26.7,14.5,37.5,25.3c10.8,10.8,19.3,23.5,25.3,37.5c6.1,14.6,9.3,30.1,9.3,46c0,15.9-3.1,31.4-9.3,46c-5.9,14.1-14.4,26.7-25.3,37.5c-10.8,10.8-23.5,19.4-37.5,25.3C159.4,243,143.9,246.1,128,246.1z M128,24.4c-14,0-27.5,2.7-40.2,8.1c-12.3,5.2-23.4,12.7-32.9,22.2c-9.5,9.5-17,20.6-22.2,32.9c-5.4,12.8-8.1,26.3-8.1,40.3c0,14,2.7,27.6,8.1,40.3c5.2,12.3,12.7,23.4,22.2,32.9c9.5,9.5,20.6,17,32.9,22.2c12.7,5.4,26.3,8.1,40.2,8.1c14,0,27.5-2.7,40.2-8.1c12.3-5.2,23.4-12.7,32.9-22.2c9.5-9.5,17-20.6,22.2-32.9c5.4-12.8,8.1-26.3,8.1-40.3c0-14-2.7-27.5-8.1-40.3c-5.2-12.3-12.7-23.4-22.2-32.9c-9.5-9.5-20.6-17-32.9-22.2C155.5,27.2,142,24.4,128,24.4z"/></g></g>
</svg>